<mxfile host="app.diagrams.net" modified="2020-10-21T07:44:10.780Z" agent="5.0 (Windows NT 10.0; Win64; x64) AppleWebKit/537.36 (KHTML, like Gecko) Chrome/86.0.4240.75 Safari/537.36" etag="wnJDbZz4Vwp1rGm2eaI5" version="13.8.1" type="github">
  <diagram id="R2lEEEUBdFMjLlhIrx00" name="Page-1">
    <mxGraphModel dx="1730" dy="4267" grid="1" gridSize="10" guides="1" tooltips="1" connect="1" arrows="1" fold="1" page="1" pageScale="1" pageWidth="2339" pageHeight="3300" math="0" shadow="0" extFonts="Permanent Marker^https://fonts.googleapis.com/css?family=Permanent+Marker">
      <root>
        <mxCell id="0" />
        <mxCell id="1" parent="0" />
        <mxCell id="ASauv4Q9lRuqwxSRhFxj-3" value="MAHASISWA" style="rounded=0;whiteSpace=wrap;html=1;" parent="1" vertex="1">
          <mxGeometry x="320" y="70" width="120" height="60" as="geometry" />
        </mxCell>
        <mxCell id="ASauv4Q9lRuqwxSRhFxj-4" value="d" style="ellipse;whiteSpace=wrap;html=1;aspect=fixed;" parent="1" vertex="1">
          <mxGeometry x="370" y="180" width="20" height="20" as="geometry" />
        </mxCell>
        <mxCell id="ASauv4Q9lRuqwxSRhFxj-5" value="" style="endArrow=none;html=1;entryX=0.5;entryY=1;entryDx=0;entryDy=0;exitX=0.5;exitY=0;exitDx=0;exitDy=0;" parent="1" source="ASauv4Q9lRuqwxSRhFxj-4" target="ASauv4Q9lRuqwxSRhFxj-3" edge="1">
          <mxGeometry width="50" height="50" relative="1" as="geometry">
            <mxPoint x="510" y="150" as="sourcePoint" />
            <mxPoint x="560" y="100" as="targetPoint" />
          </mxGeometry>
        </mxCell>
        <mxCell id="ASauv4Q9lRuqwxSRhFxj-6" value="PANITIA" style="rounded=0;whiteSpace=wrap;html=1;" parent="1" vertex="1">
          <mxGeometry x="180" y="230" width="100" height="40" as="geometry" />
        </mxCell>
        <mxCell id="ASauv4Q9lRuqwxSRhFxj-7" value="PESERTA" style="rounded=0;whiteSpace=wrap;html=1;" parent="1" vertex="1">
          <mxGeometry x="480" y="230" width="100" height="40" as="geometry" />
        </mxCell>
        <mxCell id="ASauv4Q9lRuqwxSRhFxj-8" value="" style="endArrow=none;html=1;entryX=1;entryY=0.5;entryDx=0;entryDy=0;exitX=0.5;exitY=0;exitDx=0;exitDy=0;" parent="1" source="ASauv4Q9lRuqwxSRhFxj-7" target="ASauv4Q9lRuqwxSRhFxj-4" edge="1">
          <mxGeometry width="50" height="50" relative="1" as="geometry">
            <mxPoint x="510" y="250" as="sourcePoint" />
            <mxPoint x="560" y="200" as="targetPoint" />
          </mxGeometry>
        </mxCell>
        <mxCell id="ASauv4Q9lRuqwxSRhFxj-9" value="" style="endArrow=none;html=1;entryX=0;entryY=0.5;entryDx=0;entryDy=0;exitX=0.5;exitY=0;exitDx=0;exitDy=0;" parent="1" source="ASauv4Q9lRuqwxSRhFxj-6" target="ASauv4Q9lRuqwxSRhFxj-4" edge="1">
          <mxGeometry width="50" height="50" relative="1" as="geometry">
            <mxPoint x="540" y="240" as="sourcePoint" />
            <mxPoint x="400" y="200" as="targetPoint" />
          </mxGeometry>
        </mxCell>
        <mxCell id="ASauv4Q9lRuqwxSRhFxj-10" value="KEGIATAN" style="rounded=0;whiteSpace=wrap;html=1;" parent="1" vertex="1">
          <mxGeometry x="320" y="380" width="120" height="60" as="geometry" />
        </mxCell>
        <mxCell id="ASauv4Q9lRuqwxSRhFxj-11" value="MEMANAGE" style="rhombus;whiteSpace=wrap;html=1;" parent="1" vertex="1">
          <mxGeometry x="190" y="320" width="80" height="80" as="geometry" />
        </mxCell>
        <mxCell id="ASauv4Q9lRuqwxSRhFxj-12" value="MENGIKUTI" style="rhombus;whiteSpace=wrap;html=1;" parent="1" vertex="1">
          <mxGeometry x="490" y="320" width="80" height="80" as="geometry" />
        </mxCell>
        <mxCell id="ASauv4Q9lRuqwxSRhFxj-14" value="" style="endArrow=classic;html=1;exitX=0.5;exitY=0;exitDx=0;exitDy=0;entryX=0.5;entryY=1;entryDx=0;entryDy=0;" parent="1" source="ASauv4Q9lRuqwxSRhFxj-11" target="ASauv4Q9lRuqwxSRhFxj-6" edge="1">
          <mxGeometry relative="1" as="geometry">
            <mxPoint x="490" y="320" as="sourcePoint" />
            <mxPoint x="590" y="320" as="targetPoint" />
          </mxGeometry>
        </mxCell>
        <mxCell id="ASauv4Q9lRuqwxSRhFxj-15" value="M" style="edgeLabel;resizable=0;html=1;align=center;verticalAlign=middle;" parent="ASauv4Q9lRuqwxSRhFxj-14" connectable="0" vertex="1">
          <mxGeometry relative="1" as="geometry" />
        </mxCell>
        <mxCell id="ASauv4Q9lRuqwxSRhFxj-16" value="" style="endArrow=classic;html=1;exitX=0.5;exitY=0;exitDx=0;exitDy=0;entryX=0.5;entryY=1;entryDx=0;entryDy=0;" parent="1" source="ASauv4Q9lRuqwxSRhFxj-12" target="ASauv4Q9lRuqwxSRhFxj-7" edge="1">
          <mxGeometry relative="1" as="geometry">
            <mxPoint x="240" y="280" as="sourcePoint" />
            <mxPoint x="240" y="330" as="targetPoint" />
          </mxGeometry>
        </mxCell>
        <mxCell id="ASauv4Q9lRuqwxSRhFxj-17" value="M" style="edgeLabel;resizable=0;html=1;align=center;verticalAlign=middle;" parent="ASauv4Q9lRuqwxSRhFxj-16" connectable="0" vertex="1">
          <mxGeometry relative="1" as="geometry" />
        </mxCell>
        <mxCell id="ASauv4Q9lRuqwxSRhFxj-20" value="" style="endArrow=classic;html=1;exitX=0.5;exitY=1;exitDx=0;exitDy=0;entryX=0;entryY=0.5;entryDx=0;entryDy=0;" parent="1" source="ASauv4Q9lRuqwxSRhFxj-11" target="ASauv4Q9lRuqwxSRhFxj-10" edge="1">
          <mxGeometry relative="1" as="geometry">
            <mxPoint x="240" y="280" as="sourcePoint" />
            <mxPoint x="240" y="330" as="targetPoint" />
          </mxGeometry>
        </mxCell>
        <mxCell id="ASauv4Q9lRuqwxSRhFxj-21" value="N" style="edgeLabel;resizable=0;html=1;align=center;verticalAlign=middle;" parent="ASauv4Q9lRuqwxSRhFxj-20" connectable="0" vertex="1">
          <mxGeometry relative="1" as="geometry" />
        </mxCell>
        <mxCell id="ASauv4Q9lRuqwxSRhFxj-22" value="" style="endArrow=classic;html=1;exitX=0.5;exitY=1;exitDx=0;exitDy=0;entryX=1;entryY=0.5;entryDx=0;entryDy=0;" parent="1" source="ASauv4Q9lRuqwxSRhFxj-12" target="ASauv4Q9lRuqwxSRhFxj-10" edge="1">
          <mxGeometry relative="1" as="geometry">
            <mxPoint x="240" y="410" as="sourcePoint" />
            <mxPoint x="330" y="420" as="targetPoint" />
          </mxGeometry>
        </mxCell>
        <mxCell id="ASauv4Q9lRuqwxSRhFxj-23" value="N" style="edgeLabel;resizable=0;html=1;align=center;verticalAlign=middle;" parent="ASauv4Q9lRuqwxSRhFxj-22" connectable="0" vertex="1">
          <mxGeometry relative="1" as="geometry" />
        </mxCell>
        <mxCell id="ASauv4Q9lRuqwxSRhFxj-24" value="JAWABAN" style="rounded=0;whiteSpace=wrap;html=1;" parent="1" vertex="1">
          <mxGeometry x="900" y="70" width="120" height="60" as="geometry" />
        </mxCell>
        <mxCell id="ASauv4Q9lRuqwxSRhFxj-25" value="MEMBUAT" style="rhombus;whiteSpace=wrap;html=1;" parent="1" vertex="1">
          <mxGeometry x="610" y="60" width="80" height="80" as="geometry" />
        </mxCell>
        <mxCell id="ASauv4Q9lRuqwxSRhFxj-26" value="" style="endArrow=classic;html=1;exitX=0;exitY=0.5;exitDx=0;exitDy=0;" parent="1" source="ASauv4Q9lRuqwxSRhFxj-25" edge="1">
          <mxGeometry relative="1" as="geometry">
            <mxPoint x="570" y="320" as="sourcePoint" />
            <mxPoint x="530" y="230" as="targetPoint" />
          </mxGeometry>
        </mxCell>
        <mxCell id="ASauv4Q9lRuqwxSRhFxj-27" value="1" style="edgeLabel;resizable=0;html=1;align=center;verticalAlign=middle;" parent="ASauv4Q9lRuqwxSRhFxj-26" connectable="0" vertex="1">
          <mxGeometry relative="1" as="geometry" />
        </mxCell>
        <mxCell id="ASauv4Q9lRuqwxSRhFxj-28" value="" style="endArrow=classic;html=1;exitX=1;exitY=0.5;exitDx=0;exitDy=0;entryX=0;entryY=0.5;entryDx=0;entryDy=0;" parent="1" source="ASauv4Q9lRuqwxSRhFxj-25" target="ASauv4Q9lRuqwxSRhFxj-24" edge="1">
          <mxGeometry relative="1" as="geometry">
            <mxPoint x="570" y="320" as="sourcePoint" />
            <mxPoint x="670" y="320" as="targetPoint" />
          </mxGeometry>
        </mxCell>
        <mxCell id="ASauv4Q9lRuqwxSRhFxj-29" value="N" style="edgeLabel;resizable=0;html=1;align=center;verticalAlign=middle;" parent="ASauv4Q9lRuqwxSRhFxj-28" connectable="0" vertex="1">
          <mxGeometry relative="1" as="geometry" />
        </mxCell>
        <mxCell id="ASauv4Q9lRuqwxSRhFxj-31" value="TUGAS" style="rounded=0;whiteSpace=wrap;html=1;" parent="1" vertex="1">
          <mxGeometry x="320" y="660" width="120" height="60" as="geometry" />
        </mxCell>
        <mxCell id="ASauv4Q9lRuqwxSRhFxj-32" value="MEMBERI" style="rhombus;whiteSpace=wrap;html=1;" parent="1" vertex="1">
          <mxGeometry x="340" y="510" width="80" height="80" as="geometry" />
        </mxCell>
        <mxCell id="ASauv4Q9lRuqwxSRhFxj-33" value="" style="endArrow=classic;html=1;exitX=0.5;exitY=0;exitDx=0;exitDy=0;entryX=0.5;entryY=1;entryDx=0;entryDy=0;" parent="1" source="ASauv4Q9lRuqwxSRhFxj-32" target="ASauv4Q9lRuqwxSRhFxj-10" edge="1">
          <mxGeometry relative="1" as="geometry">
            <mxPoint x="600" y="520" as="sourcePoint" />
            <mxPoint x="700" y="520" as="targetPoint" />
          </mxGeometry>
        </mxCell>
        <mxCell id="ASauv4Q9lRuqwxSRhFxj-34" value="1" style="edgeLabel;resizable=0;html=1;align=center;verticalAlign=middle;" parent="ASauv4Q9lRuqwxSRhFxj-33" connectable="0" vertex="1">
          <mxGeometry relative="1" as="geometry" />
        </mxCell>
        <mxCell id="ASauv4Q9lRuqwxSRhFxj-35" value="" style="endArrow=classic;html=1;exitX=0.5;exitY=1;exitDx=0;exitDy=0;" parent="1" source="ASauv4Q9lRuqwxSRhFxj-32" target="ASauv4Q9lRuqwxSRhFxj-31" edge="1">
          <mxGeometry relative="1" as="geometry">
            <mxPoint x="600" y="620" as="sourcePoint" />
            <mxPoint x="700" y="620" as="targetPoint" />
          </mxGeometry>
        </mxCell>
        <mxCell id="ASauv4Q9lRuqwxSRhFxj-36" value="N" style="edgeLabel;resizable=0;html=1;align=center;verticalAlign=middle;" parent="ASauv4Q9lRuqwxSRhFxj-35" connectable="0" vertex="1">
          <mxGeometry relative="1" as="geometry" />
        </mxCell>
        <mxCell id="ASauv4Q9lRuqwxSRhFxj-37" value="TERDIRI DARI" style="rhombus;whiteSpace=wrap;html=1;" parent="1" vertex="1">
          <mxGeometry x="660" y="650" width="80" height="80" as="geometry" />
        </mxCell>
        <mxCell id="ASauv4Q9lRuqwxSRhFxj-38" value="SOAL" style="rounded=0;whiteSpace=wrap;html=1;" parent="1" vertex="1">
          <mxGeometry x="900" y="660" width="120" height="60" as="geometry" />
        </mxCell>
        <mxCell id="ASauv4Q9lRuqwxSRhFxj-40" value="" style="endArrow=classic;html=1;entryX=1;entryY=0.5;entryDx=0;entryDy=0;exitX=0;exitY=0.5;exitDx=0;exitDy=0;" parent="1" source="ASauv4Q9lRuqwxSRhFxj-37" target="ASauv4Q9lRuqwxSRhFxj-31" edge="1">
          <mxGeometry relative="1" as="geometry">
            <mxPoint x="600" y="710" as="sourcePoint" />
            <mxPoint x="700" y="710" as="targetPoint" />
          </mxGeometry>
        </mxCell>
        <mxCell id="ASauv4Q9lRuqwxSRhFxj-41" value="1" style="edgeLabel;resizable=0;html=1;align=center;verticalAlign=middle;" parent="ASauv4Q9lRuqwxSRhFxj-40" connectable="0" vertex="1">
          <mxGeometry relative="1" as="geometry" />
        </mxCell>
        <mxCell id="ASauv4Q9lRuqwxSRhFxj-42" value="" style="endArrow=classic;html=1;entryX=0;entryY=0.5;entryDx=0;entryDy=0;exitX=1;exitY=0.5;exitDx=0;exitDy=0;" parent="1" source="ASauv4Q9lRuqwxSRhFxj-37" target="ASauv4Q9lRuqwxSRhFxj-38" edge="1">
          <mxGeometry relative="1" as="geometry">
            <mxPoint x="600" y="710" as="sourcePoint" />
            <mxPoint x="700" y="710" as="targetPoint" />
          </mxGeometry>
        </mxCell>
        <mxCell id="ASauv4Q9lRuqwxSRhFxj-43" value="N" style="edgeLabel;resizable=0;html=1;align=center;verticalAlign=middle;" parent="ASauv4Q9lRuqwxSRhFxj-42" connectable="0" vertex="1">
          <mxGeometry relative="1" as="geometry" />
        </mxCell>
        <mxCell id="ASauv4Q9lRuqwxSRhFxj-45" value="d" style="ellipse;whiteSpace=wrap;html=1;aspect=fixed;" parent="1" vertex="1">
          <mxGeometry x="950" y="590" width="20" height="20" as="geometry" />
        </mxCell>
        <mxCell id="ASauv4Q9lRuqwxSRhFxj-47" value="" style="endArrow=none;html=1;entryX=0.5;entryY=1;entryDx=0;entryDy=0;exitX=0.5;exitY=0;exitDx=0;exitDy=0;" parent="1" source="ASauv4Q9lRuqwxSRhFxj-38" target="ASauv4Q9lRuqwxSRhFxj-45" edge="1">
          <mxGeometry width="50" height="50" relative="1" as="geometry">
            <mxPoint x="620" y="640" as="sourcePoint" />
            <mxPoint x="670" y="590" as="targetPoint" />
          </mxGeometry>
        </mxCell>
        <mxCell id="ASauv4Q9lRuqwxSRhFxj-48" value="SOAL ESSAI" style="rounded=0;whiteSpace=wrap;html=1;" parent="1" vertex="1">
          <mxGeometry x="800" y="500" width="120" height="60" as="geometry" />
        </mxCell>
        <mxCell id="ASauv4Q9lRuqwxSRhFxj-49" value="SOAL PILGAN" style="rounded=0;whiteSpace=wrap;html=1;" parent="1" vertex="1">
          <mxGeometry x="1010" y="500" width="120" height="60" as="geometry" />
        </mxCell>
        <mxCell id="ASauv4Q9lRuqwxSRhFxj-50" value="" style="endArrow=none;html=1;entryX=0.5;entryY=1;entryDx=0;entryDy=0;exitX=0.5;exitY=0;exitDx=0;exitDy=0;" parent="1" source="ASauv4Q9lRuqwxSRhFxj-45" target="ASauv4Q9lRuqwxSRhFxj-49" edge="1">
          <mxGeometry width="50" height="50" relative="1" as="geometry">
            <mxPoint x="620" y="540" as="sourcePoint" />
            <mxPoint x="670" y="490" as="targetPoint" />
          </mxGeometry>
        </mxCell>
        <mxCell id="ASauv4Q9lRuqwxSRhFxj-51" value="" style="endArrow=none;html=1;entryX=0.5;entryY=1;entryDx=0;entryDy=0;exitX=0.5;exitY=0;exitDx=0;exitDy=0;" parent="1" source="ASauv4Q9lRuqwxSRhFxj-45" target="ASauv4Q9lRuqwxSRhFxj-48" edge="1">
          <mxGeometry width="50" height="50" relative="1" as="geometry">
            <mxPoint x="620" y="540" as="sourcePoint" />
            <mxPoint x="670" y="490" as="targetPoint" />
          </mxGeometry>
        </mxCell>
        <mxCell id="ASauv4Q9lRuqwxSRhFxj-52" value="d" style="ellipse;whiteSpace=wrap;html=1;aspect=fixed;" parent="1" vertex="1">
          <mxGeometry x="950" y="160" width="20" height="20" as="geometry" />
        </mxCell>
        <mxCell id="ASauv4Q9lRuqwxSRhFxj-53" value="" style="endArrow=none;html=1;entryX=0.5;entryY=1;entryDx=0;entryDy=0;exitX=0.5;exitY=0;exitDx=0;exitDy=0;" parent="1" source="ASauv4Q9lRuqwxSRhFxj-52" target="ASauv4Q9lRuqwxSRhFxj-24" edge="1">
          <mxGeometry width="50" height="50" relative="1" as="geometry">
            <mxPoint x="620" y="340" as="sourcePoint" />
            <mxPoint x="670" y="290" as="targetPoint" />
          </mxGeometry>
        </mxCell>
        <mxCell id="ASauv4Q9lRuqwxSRhFxj-54" value="JAWABAN PILGAN" style="rounded=0;whiteSpace=wrap;html=1;" parent="1" vertex="1">
          <mxGeometry x="1010" y="200" width="120" height="60" as="geometry" />
        </mxCell>
        <mxCell id="ASauv4Q9lRuqwxSRhFxj-55" value="JAWABAN ESSAI" style="rounded=0;whiteSpace=wrap;html=1;" parent="1" vertex="1">
          <mxGeometry x="800" y="210" width="120" height="60" as="geometry" />
        </mxCell>
        <mxCell id="ASauv4Q9lRuqwxSRhFxj-56" value="" style="endArrow=none;html=1;entryX=0.5;entryY=1;entryDx=0;entryDy=0;exitX=0.5;exitY=0;exitDx=0;exitDy=0;" parent="1" source="ASauv4Q9lRuqwxSRhFxj-55" target="ASauv4Q9lRuqwxSRhFxj-52" edge="1">
          <mxGeometry width="50" height="50" relative="1" as="geometry">
            <mxPoint x="620" y="340" as="sourcePoint" />
            <mxPoint x="670" y="290" as="targetPoint" />
          </mxGeometry>
        </mxCell>
        <mxCell id="ASauv4Q9lRuqwxSRhFxj-57" value="" style="endArrow=none;html=1;entryX=0.5;entryY=0;entryDx=0;entryDy=0;exitX=0.5;exitY=1;exitDx=0;exitDy=0;" parent="1" source="ASauv4Q9lRuqwxSRhFxj-52" target="ASauv4Q9lRuqwxSRhFxj-54" edge="1">
          <mxGeometry width="50" height="50" relative="1" as="geometry">
            <mxPoint x="620" y="340" as="sourcePoint" />
            <mxPoint x="670" y="290" as="targetPoint" />
          </mxGeometry>
        </mxCell>
        <mxCell id="ASauv4Q9lRuqwxSRhFxj-58" value="MENJAWAB" style="rhombus;whiteSpace=wrap;html=1;" parent="1" vertex="1">
          <mxGeometry x="820" y="330" width="80" height="80" as="geometry" />
        </mxCell>
        <mxCell id="ASauv4Q9lRuqwxSRhFxj-59" value="MENJAWAB" style="rhombus;whiteSpace=wrap;html=1;" parent="1" vertex="1">
          <mxGeometry x="1030" y="330" width="80" height="80" as="geometry" />
        </mxCell>
        <mxCell id="ASauv4Q9lRuqwxSRhFxj-60" value="" style="endArrow=classic;html=1;entryX=0.5;entryY=1;entryDx=0;entryDy=0;exitX=0.5;exitY=0;exitDx=0;exitDy=0;" parent="1" source="ASauv4Q9lRuqwxSRhFxj-58" target="ASauv4Q9lRuqwxSRhFxj-55" edge="1">
          <mxGeometry relative="1" as="geometry">
            <mxPoint x="910" y="320" as="sourcePoint" />
            <mxPoint x="980" y="310" as="targetPoint" />
          </mxGeometry>
        </mxCell>
        <mxCell id="ASauv4Q9lRuqwxSRhFxj-61" value="N" style="edgeLabel;resizable=0;html=1;align=center;verticalAlign=middle;" parent="ASauv4Q9lRuqwxSRhFxj-60" connectable="0" vertex="1">
          <mxGeometry relative="1" as="geometry" />
        </mxCell>
        <mxCell id="ASauv4Q9lRuqwxSRhFxj-62" value="" style="endArrow=classic;html=1;exitX=0.5;exitY=1;exitDx=0;exitDy=0;" parent="1" source="ASauv4Q9lRuqwxSRhFxj-58" target="ASauv4Q9lRuqwxSRhFxj-48" edge="1">
          <mxGeometry relative="1" as="geometry">
            <mxPoint x="880" y="310" as="sourcePoint" />
            <mxPoint x="980" y="310" as="targetPoint" />
          </mxGeometry>
        </mxCell>
        <mxCell id="ASauv4Q9lRuqwxSRhFxj-63" value="1" style="edgeLabel;resizable=0;html=1;align=center;verticalAlign=middle;" parent="ASauv4Q9lRuqwxSRhFxj-62" connectable="0" vertex="1">
          <mxGeometry relative="1" as="geometry" />
        </mxCell>
        <mxCell id="ASauv4Q9lRuqwxSRhFxj-64" value="" style="endArrow=classic;html=1;entryX=0.5;entryY=1;entryDx=0;entryDy=0;exitX=0.5;exitY=0;exitDx=0;exitDy=0;" parent="1" source="ASauv4Q9lRuqwxSRhFxj-59" target="ASauv4Q9lRuqwxSRhFxj-54" edge="1">
          <mxGeometry relative="1" as="geometry">
            <mxPoint x="880" y="310" as="sourcePoint" />
            <mxPoint x="980" y="310" as="targetPoint" />
          </mxGeometry>
        </mxCell>
        <mxCell id="ASauv4Q9lRuqwxSRhFxj-65" value="N" style="edgeLabel;resizable=0;html=1;align=center;verticalAlign=middle;" parent="ASauv4Q9lRuqwxSRhFxj-64" connectable="0" vertex="1">
          <mxGeometry relative="1" as="geometry" />
        </mxCell>
        <mxCell id="ASauv4Q9lRuqwxSRhFxj-66" value="" style="endArrow=classic;html=1;entryX=0.5;entryY=0;entryDx=0;entryDy=0;exitX=0.5;exitY=1;exitDx=0;exitDy=0;" parent="1" source="ASauv4Q9lRuqwxSRhFxj-59" target="ASauv4Q9lRuqwxSRhFxj-49" edge="1">
          <mxGeometry relative="1" as="geometry">
            <mxPoint x="880" y="310" as="sourcePoint" />
            <mxPoint x="980" y="310" as="targetPoint" />
          </mxGeometry>
        </mxCell>
        <mxCell id="ASauv4Q9lRuqwxSRhFxj-67" value="1" style="edgeLabel;resizable=0;html=1;align=center;verticalAlign=middle;" parent="ASauv4Q9lRuqwxSRhFxj-66" connectable="0" vertex="1">
          <mxGeometry relative="1" as="geometry" />
        </mxCell>
        <mxCell id="ASauv4Q9lRuqwxSRhFxj-68" value="JUMLAH KATA" style="ellipse;whiteSpace=wrap;html=1;" parent="1" vertex="1">
          <mxGeometry x="750" y="140" width="70" height="30" as="geometry" />
        </mxCell>
        <mxCell id="ASauv4Q9lRuqwxSRhFxj-70" value="ISI" style="ellipse;whiteSpace=wrap;html=1;" parent="1" vertex="1">
          <mxGeometry x="650" y="150" width="70" height="40" as="geometry" />
        </mxCell>
        <mxCell id="ASauv4Q9lRuqwxSRhFxj-71" value="&lt;u&gt;ID JAWABAN&lt;/u&gt;" style="ellipse;whiteSpace=wrap;html=1;" parent="1" vertex="1">
          <mxGeometry x="920" y="-40" width="80" height="60" as="geometry" />
        </mxCell>
        <mxCell id="ASauv4Q9lRuqwxSRhFxj-76" value="PILIHAN" style="ellipse;whiteSpace=wrap;html=1;" parent="1" vertex="1">
          <mxGeometry x="1155" y="215" width="70" height="30" as="geometry" />
        </mxCell>
        <mxCell id="ASauv4Q9lRuqwxSRhFxj-79" value="" style="endArrow=none;html=1;exitX=0.5;exitY=1;exitDx=0;exitDy=0;entryX=0.437;entryY=0.03;entryDx=0;entryDy=0;entryPerimeter=0;" parent="1" source="ASauv4Q9lRuqwxSRhFxj-68" target="ASauv4Q9lRuqwxSRhFxj-55" edge="1">
          <mxGeometry width="50" height="50" relative="1" as="geometry">
            <mxPoint x="900" y="230" as="sourcePoint" />
            <mxPoint x="950" y="180" as="targetPoint" />
          </mxGeometry>
        </mxCell>
        <mxCell id="ASauv4Q9lRuqwxSRhFxj-80" value="" style="endArrow=none;html=1;entryX=1;entryY=0.5;entryDx=0;entryDy=0;exitX=0.397;exitY=-0.01;exitDx=0;exitDy=0;exitPerimeter=0;" parent="1" source="ASauv4Q9lRuqwxSRhFxj-55" target="ASauv4Q9lRuqwxSRhFxj-70" edge="1">
          <mxGeometry width="50" height="50" relative="1" as="geometry">
            <mxPoint x="900" y="230" as="sourcePoint" />
            <mxPoint x="950" y="180" as="targetPoint" />
          </mxGeometry>
        </mxCell>
        <mxCell id="ASauv4Q9lRuqwxSRhFxj-81" value="" style="endArrow=none;html=1;exitX=0.5;exitY=0;exitDx=0;exitDy=0;entryX=0.5;entryY=1;entryDx=0;entryDy=0;" parent="1" source="ASauv4Q9lRuqwxSRhFxj-24" target="ASauv4Q9lRuqwxSRhFxj-71" edge="1">
          <mxGeometry width="50" height="50" relative="1" as="geometry">
            <mxPoint x="900" y="130" as="sourcePoint" />
            <mxPoint x="950" y="80" as="targetPoint" />
          </mxGeometry>
        </mxCell>
        <mxCell id="ASauv4Q9lRuqwxSRhFxj-82" value="" style="endArrow=none;html=1;entryX=1;entryY=0.5;entryDx=0;entryDy=0;exitX=0;exitY=0.5;exitDx=0;exitDy=0;" parent="1" source="ASauv4Q9lRuqwxSRhFxj-76" target="ASauv4Q9lRuqwxSRhFxj-54" edge="1">
          <mxGeometry width="50" height="50" relative="1" as="geometry">
            <mxPoint x="900" y="130" as="sourcePoint" />
            <mxPoint x="950" y="80" as="targetPoint" />
          </mxGeometry>
        </mxCell>
        <mxCell id="ASauv4Q9lRuqwxSRhFxj-83" value="NILAI" style="ellipse;whiteSpace=wrap;html=1;" parent="1" vertex="1">
          <mxGeometry x="670" y="350" width="80" height="40" as="geometry" />
        </mxCell>
        <mxCell id="ASauv4Q9lRuqwxSRhFxj-84" value="" style="endArrow=none;html=1;entryX=1;entryY=0.5;entryDx=0;entryDy=0;exitX=0;exitY=0.5;exitDx=0;exitDy=0;" parent="1" source="ASauv4Q9lRuqwxSRhFxj-58" target="ASauv4Q9lRuqwxSRhFxj-83" edge="1">
          <mxGeometry width="50" height="50" relative="1" as="geometry">
            <mxPoint x="900" y="430" as="sourcePoint" />
            <mxPoint x="950" y="380" as="targetPoint" />
          </mxGeometry>
        </mxCell>
        <mxCell id="ASauv4Q9lRuqwxSRhFxj-85" value="NILAI" style="ellipse;whiteSpace=wrap;html=1;" parent="1" vertex="1">
          <mxGeometry x="1145" y="350" width="80" height="40" as="geometry" />
        </mxCell>
        <mxCell id="ASauv4Q9lRuqwxSRhFxj-86" value="" style="endArrow=none;html=1;entryX=0;entryY=0.5;entryDx=0;entryDy=0;exitX=1;exitY=0.5;exitDx=0;exitDy=0;" parent="1" source="ASauv4Q9lRuqwxSRhFxj-59" target="ASauv4Q9lRuqwxSRhFxj-85" edge="1">
          <mxGeometry width="50" height="50" relative="1" as="geometry">
            <mxPoint x="800" y="400" as="sourcePoint" />
            <mxPoint x="760" y="400" as="targetPoint" />
          </mxGeometry>
        </mxCell>
        <mxCell id="ASauv4Q9lRuqwxSRhFxj-88" value="PILIHAN JAWABAN" style="ellipse;whiteSpace=wrap;html=1;" parent="1" vertex="1">
          <mxGeometry x="1200" y="510" width="80" height="40" as="geometry" />
        </mxCell>
        <mxCell id="ASauv4Q9lRuqwxSRhFxj-90" value="" style="endArrow=none;html=1;entryX=0;entryY=0.5;entryDx=0;entryDy=0;exitX=1;exitY=0.5;exitDx=0;exitDy=0;" parent="1" source="ASauv4Q9lRuqwxSRhFxj-49" target="ASauv4Q9lRuqwxSRhFxj-88" edge="1">
          <mxGeometry width="50" height="50" relative="1" as="geometry">
            <mxPoint x="1120" y="380" as="sourcePoint" />
            <mxPoint x="1155" y="390" as="targetPoint" />
          </mxGeometry>
        </mxCell>
        <mxCell id="ASauv4Q9lRuqwxSRhFxj-91" value="PENJELASAN SOAL" style="ellipse;whiteSpace=wrap;html=1;" parent="1" vertex="1">
          <mxGeometry x="640" y="500" width="90" height="50" as="geometry" />
        </mxCell>
        <mxCell id="ASauv4Q9lRuqwxSRhFxj-92" value="" style="endArrow=none;html=1;entryX=1;entryY=0.5;entryDx=0;entryDy=0;exitX=0;exitY=0.5;exitDx=0;exitDy=0;" parent="1" source="ASauv4Q9lRuqwxSRhFxj-48" target="ASauv4Q9lRuqwxSRhFxj-91" edge="1">
          <mxGeometry width="50" height="50" relative="1" as="geometry">
            <mxPoint x="830" y="380" as="sourcePoint" />
            <mxPoint x="760" y="380" as="targetPoint" />
          </mxGeometry>
        </mxCell>
        <mxCell id="ASauv4Q9lRuqwxSRhFxj-93" value="&lt;u&gt;ID SOAL&lt;/u&gt;" style="ellipse;whiteSpace=wrap;html=1;" parent="1" vertex="1">
          <mxGeometry x="860" y="780" width="90" height="50" as="geometry" />
        </mxCell>
        <mxCell id="ASauv4Q9lRuqwxSRhFxj-94" value="" style="endArrow=none;html=1;entryX=0.5;entryY=1;entryDx=0;entryDy=0;exitX=0.5;exitY=0;exitDx=0;exitDy=0;" parent="1" source="ASauv4Q9lRuqwxSRhFxj-93" target="ASauv4Q9lRuqwxSRhFxj-38" edge="1">
          <mxGeometry width="50" height="50" relative="1" as="geometry">
            <mxPoint x="970" y="670" as="sourcePoint" />
            <mxPoint x="970" y="620" as="targetPoint" />
          </mxGeometry>
        </mxCell>
        <mxCell id="ASauv4Q9lRuqwxSRhFxj-95" value="PERTANYAAN" style="ellipse;whiteSpace=wrap;html=1;" parent="1" vertex="1">
          <mxGeometry x="980" y="780" width="90" height="50" as="geometry" />
        </mxCell>
        <mxCell id="ASauv4Q9lRuqwxSRhFxj-96" value="" style="endArrow=none;html=1;entryX=0.5;entryY=1;entryDx=0;entryDy=0;exitX=0.5;exitY=0;exitDx=0;exitDy=0;" parent="1" source="ASauv4Q9lRuqwxSRhFxj-95" target="ASauv4Q9lRuqwxSRhFxj-38" edge="1">
          <mxGeometry width="50" height="50" relative="1" as="geometry">
            <mxPoint x="915" y="790" as="sourcePoint" />
            <mxPoint x="970" y="730" as="targetPoint" />
          </mxGeometry>
        </mxCell>
        <mxCell id="ASauv4Q9lRuqwxSRhFxj-98" value="&lt;u&gt;NIM&lt;/u&gt;" style="ellipse;whiteSpace=wrap;html=1;" parent="1" vertex="1">
          <mxGeometry x="420" width="70" height="40" as="geometry" />
        </mxCell>
        <mxCell id="ASauv4Q9lRuqwxSRhFxj-99" value="NAMA" style="ellipse;whiteSpace=wrap;html=1;" parent="1" vertex="1">
          <mxGeometry x="280" width="70" height="40" as="geometry" />
        </mxCell>
        <mxCell id="ASauv4Q9lRuqwxSRhFxj-100" value="" style="endArrow=none;html=1;entryX=0.5;entryY=1;entryDx=0;entryDy=0;exitX=0.5;exitY=0;exitDx=0;exitDy=0;" parent="1" source="ASauv4Q9lRuqwxSRhFxj-3" target="ASauv4Q9lRuqwxSRhFxj-99" edge="1">
          <mxGeometry width="50" height="50" relative="1" as="geometry">
            <mxPoint x="340" y="220" as="sourcePoint" />
            <mxPoint x="390" y="170" as="targetPoint" />
          </mxGeometry>
        </mxCell>
        <mxCell id="ASauv4Q9lRuqwxSRhFxj-101" value="" style="endArrow=none;html=1;entryX=0.5;entryY=1;entryDx=0;entryDy=0;exitX=0.5;exitY=0;exitDx=0;exitDy=0;" parent="1" source="ASauv4Q9lRuqwxSRhFxj-3" target="ASauv4Q9lRuqwxSRhFxj-98" edge="1">
          <mxGeometry width="50" height="50" relative="1" as="geometry">
            <mxPoint x="390" y="80" as="sourcePoint" />
            <mxPoint x="325" y="50" as="targetPoint" />
          </mxGeometry>
        </mxCell>
        <mxCell id="ASauv4Q9lRuqwxSRhFxj-102" value="JABATAN" style="ellipse;whiteSpace=wrap;html=1;" parent="1" vertex="1">
          <mxGeometry x="40" y="230" width="70" height="40" as="geometry" />
        </mxCell>
        <mxCell id="ASauv4Q9lRuqwxSRhFxj-103" value="" style="endArrow=none;html=1;entryX=0;entryY=0.5;entryDx=0;entryDy=0;exitX=1;exitY=0.5;exitDx=0;exitDy=0;" parent="1" source="ASauv4Q9lRuqwxSRhFxj-102" target="ASauv4Q9lRuqwxSRhFxj-6" edge="1">
          <mxGeometry width="50" height="50" relative="1" as="geometry">
            <mxPoint x="90" y="370" as="sourcePoint" />
            <mxPoint x="140" y="320" as="targetPoint" />
          </mxGeometry>
        </mxCell>
        <mxCell id="ASauv4Q9lRuqwxSRhFxj-105" value="KELOMPOK" style="ellipse;whiteSpace=wrap;html=1;" parent="1" vertex="1">
          <mxGeometry x="620" y="230" width="80" height="40" as="geometry" />
        </mxCell>
        <mxCell id="ASauv4Q9lRuqwxSRhFxj-106" value="" style="endArrow=none;html=1;exitX=0;exitY=0.5;exitDx=0;exitDy=0;entryX=1;entryY=0.5;entryDx=0;entryDy=0;" parent="1" source="ASauv4Q9lRuqwxSRhFxj-105" target="ASauv4Q9lRuqwxSRhFxj-7" edge="1">
          <mxGeometry width="50" height="50" relative="1" as="geometry">
            <mxPoint x="120" y="260" as="sourcePoint" />
            <mxPoint x="600" y="280" as="targetPoint" />
          </mxGeometry>
        </mxCell>
        <mxCell id="ASauv4Q9lRuqwxSRhFxj-107" value="NAMA TUGAS" style="ellipse;whiteSpace=wrap;html=1;" parent="1" vertex="1">
          <mxGeometry x="250" y="780" width="90" height="50" as="geometry" />
        </mxCell>
        <mxCell id="ASauv4Q9lRuqwxSRhFxj-108" value="&lt;u&gt;ID TUGAS&lt;/u&gt;" style="ellipse;whiteSpace=wrap;html=1;" parent="1" vertex="1">
          <mxGeometry x="410" y="780" width="90" height="50" as="geometry" />
        </mxCell>
        <mxCell id="ASauv4Q9lRuqwxSRhFxj-109" value="" style="endArrow=none;html=1;entryX=0.5;entryY=1;entryDx=0;entryDy=0;exitX=0.5;exitY=0;exitDx=0;exitDy=0;" parent="1" source="ASauv4Q9lRuqwxSRhFxj-107" target="ASauv4Q9lRuqwxSRhFxj-31" edge="1">
          <mxGeometry width="50" height="50" relative="1" as="geometry">
            <mxPoint x="580" y="730" as="sourcePoint" />
            <mxPoint x="630" y="680" as="targetPoint" />
          </mxGeometry>
        </mxCell>
        <mxCell id="ASauv4Q9lRuqwxSRhFxj-110" value="" style="endArrow=none;html=1;entryX=0.5;entryY=1;entryDx=0;entryDy=0;exitX=0.5;exitY=0;exitDx=0;exitDy=0;" parent="1" source="ASauv4Q9lRuqwxSRhFxj-108" target="ASauv4Q9lRuqwxSRhFxj-31" edge="1">
          <mxGeometry width="50" height="50" relative="1" as="geometry">
            <mxPoint x="305" y="790" as="sourcePoint" />
            <mxPoint x="390" y="730" as="targetPoint" />
          </mxGeometry>
        </mxCell>
        <mxCell id="ASauv4Q9lRuqwxSRhFxj-111" value="TANGGAL" style="ellipse;whiteSpace=wrap;html=1;" parent="1" vertex="1">
          <mxGeometry x="380" y="240" width="80" height="40" as="geometry" />
        </mxCell>
        <mxCell id="ASauv4Q9lRuqwxSRhFxj-113" value="" style="endArrow=none;html=1;entryX=0;entryY=0.5;entryDx=0;entryDy=0;exitX=1;exitY=0.5;exitDx=0;exitDy=0;" parent="1" source="ASauv4Q9lRuqwxSRhFxj-111" target="ASauv4Q9lRuqwxSRhFxj-12" edge="1">
          <mxGeometry width="50" height="50" relative="1" as="geometry">
            <mxPoint x="450" y="430" as="sourcePoint" />
            <mxPoint x="500" y="380" as="targetPoint" />
          </mxGeometry>
        </mxCell>
        <mxCell id="ASauv4Q9lRuqwxSRhFxj-115" value="ABSENSI" style="ellipse;whiteSpace=wrap;html=1;" parent="1" vertex="1">
          <mxGeometry x="380" y="300" width="80" height="40" as="geometry" />
        </mxCell>
        <mxCell id="ASauv4Q9lRuqwxSRhFxj-117" value="" style="endArrow=none;html=1;entryX=0;entryY=0.5;entryDx=0;entryDy=0;exitX=1;exitY=0.5;exitDx=0;exitDy=0;" parent="1" source="ASauv4Q9lRuqwxSRhFxj-115" target="ASauv4Q9lRuqwxSRhFxj-12" edge="1">
          <mxGeometry width="50" height="50" relative="1" as="geometry">
            <mxPoint x="470" y="270" as="sourcePoint" />
            <mxPoint x="500" y="370" as="targetPoint" />
          </mxGeometry>
        </mxCell>
      </root>
    </mxGraphModel>
  </diagram>
</mxfile>
